
<mxGraphModel dx="1765" dy="843" grid="1" gridSize="10" guides="1" tooltips="1" connect="1" arrows="1" fold="1" page="1" pageScale="1" pageWidth="827" pageHeight="1169" math="0" shadow="0">
  <root>
    <mxCell id="0"/>
    <mxCell id="1" parent="0"/>
    <!-- Participants -->
    <mxCell id="2" value="Usuário" style="rounded=1;whiteSpace=wrap;html=1;fillColor=#dae8fc;strokeColor=#6c8ebf;" vertex="1" parent="1">
      <mxGeometry x="100" y="50" width="100" height="30" as="geometry"/>
    </mxCell>
    <mxCell id="3" value="Interface Web" style="rounded=1;whiteSpace=wrap;html=1;fillColor=#d5e8d4;strokeColor=#82b366;" vertex="1" parent="1">
      <mxGeometry x="300" y="50" width="100" height="30" as="geometry"/>
    </mxCell>
    <mxCell id="4" value="Servidor" style="rounded=1;whiteSpace=wrap;html=1;fillColor=#fff2cc;strokeColor=#d6b656;" vertex="1" parent="1">
      <mxGeometry x="500" y="50" width="100" height="30" as="geometry"/>
    </mxCell>
    <mxCell id="5" value="Banco de Dados" style="rounded=1;whiteSpace=wrap;html=1;fillColor=#f8cecc;strokeColor=#b85450;" vertex="1" parent="1">
      <mxGeometry x="700" y="50" width="100" height="30" as="geometry"/>
    </mxCell>
    <!-- Messages -->
    <mxCell id="6" value="Upload Base Excel" style="edgeStyle=orthogonalEdgeStyle;rounded=0;orthogonalLoop=1;jettySize=auto;html=1;strokeColor=#000000;" edge="1" parent="1" source="2" target="3">
      <mxGeometry relative="1" as="geometry"/>
    </mxCell>
    <mxCell id="7" value="Salva na Tabela Empresa_Registros" style="edgeStyle=orthogonalEdgeStyle;rounded=0;orthogonalLoop=1;jettySize=auto;html=1;strokeColor=#000000;" edge="1" parent="1" source="3" target="5">
      <mxGeometry relative="1" as="geometry"/>
    </mxCell>
    <mxCell id="8" value="Seleciona Parâmetros" style="edgeStyle=orthogonalEdgeStyle;rounded=0;orthogonalLoop=1;jettySize=auto;html=1;strokeColor=#000000;" edge="1" parent="1" source="2" target="3">
      <mxGeometry relative="1" as="geometry"/>
    </mxCell>
    <mxCell id="9" value="Envia para Servidor" style="edgeStyle=orthogonalEdgeStyle;rounded=0;orthogonalLoop=1;jettySize=auto;html=1;strokeColor=#000000;" edge="1" parent="1" source="3" target="4">
      <mxGeometry relative="1" as="geometry"/>
    </mxCell>
    <mxCell id="10" value="Executa sp_Exec_Relatorio" style="edgeStyle=orthogonalEdgeStyle;rounded=0;orthogonalLoop=1;jettySize=auto;html=1;strokeColor=#000000;" edge="1" parent="1" source="4" target="5">
      <mxGeometry relative="1" as="geometry"/>
    </mxCell>
    <mxCell id="11" value="Retorna Resultados" style="edgeStyle=orthogonalEdgeStyle;rounded=0;orthogonalLoop=1;jettySize=auto;html=1;strokeColor=#000000;" edge="1" parent="1" source="5" target="4">
      <mxGeometry relative="1" as="geometry"/>
    </mxCell>
    <mxCell id="12" value="Processa e Gera DataTable" style="edgeStyle=orthogonalEdgeStyle;rounded=0;orthogonalLoop=1;jettySize=auto;html=1;strokeColor=#000000;" edge="1" parent="1" source="4" target="3">
      <mxGeometry relative="1" as="geometry"/>
    </mxCell>
    <mxCell id="13" value="Exibe Relatório" style="edgeStyle=orthogonalEdgeStyle;rounded=0;orthogonalLoop=1;jettySize=auto;html=1;strokeColor=#000000;" edge="1" parent="1" source="3" target="2">
      <mxGeometry relative="1" as="geometry"/>
    </mxCell>
  </root>
</mxGraphModel>
